HIERARCHY
ROOT Hips
{
	OFFSET -0.179506 -22.333345 2.821913
	CHANNELS 6 Xposition Yposition Zposition Zrotation Yrotation Xrotation 
	JOINT LeftUpLeg
	{
		OFFSET 6.951974 -9.140623 -0.681533
		CHANNELS 3 Zrotation Yrotation Xrotation
		JOINT LeftLeg
		{
			OFFSET 3.427654 -37.519855 -0.449580
			CHANNELS 3 Zrotation Yrotation Xrotation
			JOINT LeftFoot
			{
				OFFSET -1.359570 -39.796059 -4.369333
				CHANNELS 3 Zrotation Yrotation Xrotation
				JOINT LeftToe
				{
					OFFSET 2.635814 -5.579078 11.928840
					CHANNELS 3 Zrotation Yrotation Xrotation
					End Site
					{
						OFFSET 0.000000 0.000000 0.000000
					}
				}
			}
		}
	}
	JOINT RightUpLeg
	{
		OFFSET -6.767048 -9.052170 -0.431982
		CHANNELS 3 Zrotation Yrotation Xrotation
		JOINT RightLeg
		{
			OFFSET -3.829005 -38.256897 -0.885003
			CHANNELS 3 Zrotation Yrotation Xrotation
			JOINT RightFoot
			{
				OFFSET 1.577377 -39.841461 -4.231180
				CHANNELS 3 Zrotation Yrotation Xrotation
				JOINT RightToe
				{
					OFFSET -2.537174 -4.814398 12.334795
					CHANNELS 3 Zrotation Yrotation Xrotation
					End Site
					{
						OFFSET 0.000000 0.000000 0.000000
					}
				}
			}
		}
	}
	JOINT Spine
	{
		OFFSET -0.253288 10.896323 -2.669631
		CHANNELS 3 Zrotation Yrotation Xrotation
		JOINT Spine1
		{
			OFFSET 0.548704 13.518043 0.109247
			CHANNELS 3 Zrotation Yrotation Xrotation
			JOINT Spine2
			{
				OFFSET 0.145701 5.292222 2.542457
				CHANNELS 3 Zrotation Yrotation Xrotation
				JOINT Neck
				{
					OFFSET -0.277840 21.387037 -4.285703
					CHANNELS 3 Zrotation Yrotation Xrotation
					JOINT Head
					{
						OFFSET 0.515184 6.496960 5.134897
						CHANNELS 3 Zrotation Yrotation Xrotation
						End Site
						{
							OFFSET 0.000000 0.000000 0.000000
						}
					}
				}
				JOINT LeftShoulder
				{
					OFFSET 7.884473 12.174932 -3.408961
					CHANNELS 3 Zrotation Yrotation Xrotation
					JOINT LeftArm
					{
						OFFSET 9.097692 3.046888 -0.886815
						CHANNELS 3 Zrotation Yrotation Xrotation
						JOINT LeftForeArm
						{
							OFFSET 25.961220 -1.277207 -2.745643
							CHANNELS 3 Zrotation Yrotation Xrotation
							JOINT LeftHand
							{
								OFFSET 24.923361 0.898606 -0.117091
								CHANNELS 3 Zrotation Yrotation Xrotation
								End Site
								{
									OFFSET 0.000000 0.000000 0.000000
								}
							}
						}
					}
				}
				JOINT RightShoulder
				{
					OFFSET -8.175920 11.883285 -3.861528
					CHANNELS 3 Zrotation Yrotation Xrotation
					JOINT RightArm
					{
						OFFSET -9.601238 3.255117 -0.914307
						CHANNELS 3 Zrotation Yrotation Xrotation
						JOINT RightForeArm
						{
							OFFSET -25.374195 -1.332924 -2.140099
							CHANNELS 3 Zrotation Yrotation Xrotation
							JOINT RightHand
							{
								OFFSET -25.529810 0.777228 -0.555919
								CHANNELS 3 Zrotation Yrotation Xrotation
								End Site
								{
									OFFSET 0.000000 0.000000 0.000000
								}
							}
						}
					}
				}
			}
		}
	}
}
MOTION
Frames: 6
Frame Time: 0.033333
-94.552094 36.605412 90.827072 -109.332255 0.571177 86.624927 8.372606 7.879237 3.326987 -2.465381 11.593966 14.148022 4.017337 13.268894 -22.634735 nan nan nan -12.775756 -8.510424 -14.815699 1.576459 -15.026166 14.313318 5.855494 -3.051663 -1.755912 nan nan nan -8.651389 0.867128 -0.794888 7.480131 -5.283223 13.517283 0.545365 0.421785 -5.925843 3.541391 -15.704834 21.524395 5.363853 -21.584704 14.536751 -10.209089 -6.694259 3.360188 -75.757024 -39.396839 35.497869 152.784738 -63.228788 -120.560333 -5.238289 -21.630026 -9.005645 17.521469 4.474359 -1.377921 58.695730 16.245084 6.873500 -141.435069 48.364979 -117.854178 2.854836 12.487473 -9.370563 
-94.558311 36.594318 90.825432 -109.308910 0.634175 86.613806 8.428223 7.778715 3.349372 -2.539582 11.383014 14.114432 3.877878 13.458741 -22.597855 nan nan nan -12.723666 -8.556528 -14.811825 1.598295 -14.937003 14.398447 5.756305 -3.115458 -1.807415 nan nan nan -8.537628 0.731990 -0.728420 7.431357 -5.212124 13.231722 0.533821 0.460609 -5.608530 3.571246 -15.755460 21.376615 5.244090 -21.368680 14.764084 -10.219006 -6.705867 3.311567 -75.820342 -39.234815 35.466628 153.000210 -63.378974 -120.088976 -4.213224 -21.544248 -9.997842 17.494767 4.470748 -1.433218 58.738584 16.288669 6.975515 -141.342412 48.430466 -117.324855 2.388021 12.437767 -9.632971 
-94.574326 36.599800 90.818710 -109.296351 0.689147 86.580951 8.498520 7.711427 3.420063 -2.597688 11.233818 14.038262 3.782824 13.629354 -22.569887 nan nan nan -12.666081 -8.536356 -14.737520 1.632042 -14.800425 14.361390 5.695936 -3.217797 -1.831794 nan nan nan -8.446965 0.633392 -0.564927 7.377339 -5.135170 12.866207 0.528790 0.465597 -5.325116 3.599360 -15.766530 21.303740 5.104995 -21.155502 14.974531 -10.147067 -6.667616 3.271663 -75.835564 -39.201162 35.379746 153.297214 -63.526759 -119.749484 -3.437123 -21.451790 -11.031547 17.449758 4.458111 -1.413780 58.828380 16.381128 7.066015 -141.400249 48.438612 -116.981183 2.282696 12.307134 -9.841326 
-94.592232 36.604286 90.816505 -109.289600 0.714041 86.574462 8.538014 7.704306 3.455100 -2.603367 11.262496 13.981589 3.722630 13.643746 -22.567819 nan nan nan -12.633597 -8.524608 -14.741461 1.596503 -14.779947 14.426119 5.703709 -3.240460 -1.876445 nan nan nan -8.410543 0.589315 -0.462268 7.345977 -5.085448 12.607891 0.527208 0.448659 -5.139105 3.634279 -15.737861 21.284984 5.083187 -21.048676 15.042671 -10.096193 -6.587818 3.254826 -75.923138 -39.223171 35.357511 153.451337 -63.577922 -119.771280 -3.444433 -21.496756 -11.204185 17.421223 4.393937 -1.304067 58.864516 16.549527 7.020271 -141.604831 48.504215 -117.076743 2.623107 12.155476 -9.621312 
-94.589211 36.601292 90.810883 -109.307499 0.723597 86.582811 8.545413 7.681218 3.463845 -2.583234 11.376470 13.949724 3.732455 13.608807 -22.552229 nan nan nan -12.614830 -8.489574 -14.800474 1.546155 -14.822837 14.520717 5.684556 -3.201629 -1.920660 nan nan nan -8.401548 0.592012 -0.452849 7.332096 -5.075597 12.663492 0.527219 0.412912 -5.179204 3.730186 -15.627712 21.210185 5.013300 -21.035405 15.082773 -10.048934 -6.556485 3.218942 -75.983547 -39.268371 35.371518 153.282437 -63.495557 -119.761851 -4.015670 -21.645405 -10.842294 17.363467 4.387756 -1.227959 58.941326 16.659995 7.046426 -141.676658 48.488098 -117.098514 3.053104 12.124960 -9.382525 
-94.587151 36.604691 90.806122 -109.301755 0.705945 86.627520 8.519581 7.665651 3.385609 -2.543135 11.470130 14.023837 3.717687 13.469155 -22.547823 nan nan nan -12.633007 -8.483648 -14.875012 1.490415 -14.966066 14.574554 5.720042 -3.084416 -1.959411 nan nan nan -8.437871 0.583003 -0.544800 7.316302 -5.099930 12.875058 0.531442 0.384037 -5.322309 3.902070 -15.363779 21.218784 4.989878 -21.087132 14.981634 -10.033959 -6.505983 3.148966 -75.938479 -39.388286 35.382604 152.809394 -63.412554 -119.611536 -4.987171 -22.169346 -10.084450 17.335935 4.465823 -1.135358 59.043974 16.697695 7.116527 -141.551703 48.363692 -116.946867 3.298470 12.311328 -9.323049 
